<svg xmlns="http://www.w3.org/2000/svg" width="169" height="13" fill="none" xmlns:v="https://vecta.io/nano"><g clip-path="url(#A)" fill="#ff7e84"><path d="M168.872 12.188c.136-.147.198-.529-.061-.499l-.358.607.419-.108zm-1.275-1.44c-.37.255-.863.744-.838 1.351.456-.558.456-.294.961-.969.259-.029.358.274.259.499.136-.147.333.206.58-.176-.173-.538-.567-.626-1.098-.294-.049-.147.087-.294.136-.411zm-23.519-4.65l.136.098c-.025-.049-.074-.078-.136-.098zm-14.801-2.035c.111 0 .173-.069.185-.117-.111.02-.209.059-.185.117zm-2.457-.95c.05.029.099.039.148.059-.049-.059-.111-.098-.148-.059z"/><path d="M144.078 6.098l-.357-.255c-.062.206.185.176.357.255zm19.828 5.629c.087-.02.173-.069.259-.127-.074.02-.148.029-.222.029 0 .039-.012.069-.037.098zm-13.164-5.305l.123.01c.05-.069.111-.147.161-.245l-.284.235zm5.031.676c-.111-.039-.284.489-.382.724.123-.215.222-.303.333-.333a2.82 2.82 0 0 0 .049-.392zm7.625 2.271l.161-.049-.161.049zm-16.223-3.535c.012-.078.012-.157 0-.196-.025.069-.025.137 0 .196zM6.795 12.276c-.012-.039-.025-.059-.025-.098-.025.069-.012.108.025.098zM.294 10.788l.074-.049c-.037-.098-.062-.206-.086-.304l.012.353zm121.94-8.801c.013.01.013.01.025.01.123-.049.049-.049-.025-.01zM78.959.881c.493.489-.789.636-.037 1.175-.074-.206.653-.852.037-1.175zm84.852 10.758c-.074-.01-.135-.01-.209-.029.086.029.148.039.209.029z"/><path d="M78.922 2.066l.074.059-.074-.059zm32.437-.47a.7.7 0 0 0 .087.245c0-.059-.013-.127-.087-.245zm7.974 1.242l-.185-.088c.074.059.136.078.185.088zm-12.225-.713c-.111-.049-.135-.127-.296-.059.013.029.025.049.037.069.074-.069.148-.098.259-.01zm-4.358-.227l.074.117.136-.029-.21-.088zM19.479 9.907a2.18 2.18 0 0 1-.308-.46c.148.382-.431.617.308.46zm144.511 1.517c-.062.127-.124.196-.185.206.049 0 .098 0 .148-.01.024-.069.049-.137.037-.196zM106.6 6.451l-.678-.117c.185.059.431.098.678.117zm-56.546.088l-.148.078c.062 0 .111-.02.148-.078zm53.835-.245a1.03 1.03 0 0 0-.357-.401.43.43 0 0 0-.087.137l.444.264z"/><path d="M15.066 11.395c.641-.078.123-.744.16-1.165.715-.313.481.47.838.793.431-.264.629-.969.999-.989.049.118.136.147.086.303.37-.636 1.492-.255 1.911-1.057.062.059.099.117.123.166-.173-.343-.271-.705-.321-.959.284-.059.431-.529.653-.078-.185.01-.148.206-.197.362l.259-.245c.419.627-.358.294-.247.783.53-.303 1.097-.959 1.59-.842.234.636-.999.382-.271.871l-.752-.147c.764.95-.444-.01.296 1.018.949.049.949-.489 1.899-.421.123-.392-.185-.529-.062-.92 1.171-.822 1.381 1.517 2.158.519.16-.47.074-1.312.851-.959l-.099.773c.9-.039.284-1.136 1.319-.754-.111.313-.653.333-.493.411.727.509.345-.48.801-.538l.234.646c.925-.225 1.874-.842 2.91-1.087-.025.206-.16.431.123.607 1.27-.47 2.86-.225 4.204.029l.395-.627c.111-.01.259.235.148.362.53.166-.037-.362.173-.617.283-.069.431.284.283.48.801-.578 2.343-1.312 3.366-.803l-.16.186c.764.157.641-1.263 1.393-.783l-.111.108c1.615.117 3.292-.558 4.611.206.123-.842 1.603.235 1.566-.92.974.489.74.724 2.059.999.345.02.419-.764.826-.91l.086.597.493-.675.382.695.37-.186a.5.5 0 0 1-.358-.421c.579-.323 1.553.323 1.59.627l1.406-.597c-.012.245-.247.343-.419.509.715-.656.21.627.863.02-.111-.127.012-.362.012-.48.395.343 1.196.294 1.788.108l-.074.421c1.085.039 2.256-.333 3.465-.401-.456-.166-.419-.891-.062-.979l.197.627c.197-.411-.395-.215.037-.724.456.049.37.705.123.93l.53-.255c.049.186-.074.294-.086.538.197-.411.999.587 1.27-.127l.049.186c1.208-.069 1.739-.323 2.725-.382-.025-.548.37-.441.641-.891.74.157 1.578.558 2.441.48.604-.294.148-.47.407-.803.074.499.949.421.518.803 1.048-.117 1.332-.147 2.651-.597-.148-.196-.32-.284-.247-.46.234-.088.555.196.53.431l-.062.059c1.467-.803 3.502 1.351 4.648.264l-.062.059 1.221-.558c.567.088-.333.382.099.685 1.307-.842 2.096.108 3.181-.45.863 1.478 3.008-.117 4.155.822l-.062-.352c.296-.343.358.196.579.274-.037-.274-.32-.313-.136-.499 2.503-.421 5.166.45 7.718.871.937.117.579-1.791 1.738-.93l-.358.636c1.923-.724 3.859.127 5.746-.489-.123.147-.136.343-.308.333.37.48 1.442.059 1.467-.323.284.049.049.352.222.548.382.284 1.023-.578 1.196-.098.037.078-.124.147-.198.186.272-.225 1.184.088.974-.46.679.284 1.344-.215 1.874.137.407-.587 1.172.362 1.344-.489-.111.881 1.172.783 1.64.392-.172.255.358.303.16.656.506.02.975-.117.925-.578.839 1.106 1.924-.744 2.33.636 1.529-.392 2.935-.636 4.303-.764-.135.881-1.491 0-1.528.93 1.307-.294 2.12-1.008 3.353-.715.308.137-.222.372-.357.519 1.307-.284 2.441.196 3.625-.166-.013.078-.148.157-.272.215.222-.01.506.176.518-.225l-.234.088c-.284-.617 1.023-1.126 1.11-1.429-.518 1.106 1.084.392.295 1.782a.55.55 0 0 0 .358-.509c.21.098.259.264 0 .548.826-.147.592-.597 1.319-.519-.024.196-.185.255-.283.48.407-.343.826-.685 1.418-.47-.05.117 0 .274-.185.255 1.048.039 1.923-.842 3.02-.372-.456.813.346.313.309 1.047l.653-.157-.197-.372c.542.059 1.097-.421 1.529-.147l-.444.264 1.035-.049-.53-.323c.604-.323.087-.92.777-.656-.16.059.542.059.752.509.308-.206.617-.421.986-.206.062.245-.209.793-.172.959.357-.578 1.294-.049 1.738-.666-.135.137-.209.519-.185.607l.309-.47c.222.176.246.264.16.558.74.157-.086-.94.74-.46-.074.029-.062.108-.21.166.863.274 1.788-.147 2.565.215.111.764-.753.088-.58.734 1.208.02 2.602-.558 3.724-.245l-.198-.108c.358-1.008.752.617 1.431.206-.161.059-.296.548-.235.441.752.264 1.652-.049 2.91-.215l-.197.245c.419.294 1.196.294 1.664.48.198-.245.481-.166.382-.568 1.221 1.694 3.12-.421 4.205.998-.16-.02-.444.176-.308.196l1.22-.098c.012-.46-.086-.294-.259-.666.21-.245.58-.411.876-.372-.592.225-.161.715.012.989-.012-.137.111-.284.123-.421.419.871.309-.891 1.024-.235l-.099.225c.333-.069.69-.333 1.011-.206.012.538-.382.186-.506.607.469.049 1.159-.822 1.455-.235-.234.108-.517.069-.752.176.321.685.407.538.728.685l-.025-.02.727.401-.16-.196c.913-1.243 1.245-.049 2.256-.793-.974.705-.246.46-.456 1.028.161.196.419.431.296.578.493-.411.53.47 1.221-.127-.025.196.394.088.185.538.518-.069-.025-.343.074-.568.912-.509 1.541 1.067 2.848.372 1.023-.206 1.356-.803 2.305-.979.21.343-.419.636-.419.636.395.352.752.362 1.258.225-.136.147-.086.303 0 .529.37.01.431-.636.814-.284-.136.196-.333.509-.568.685.469-.098.974-.382 1.455-.48.025.343-.394.45-.616.636.53-.069 1.331-.088 1.64-.577l-.259-.235c.185.01-.037.46-.197.529-.531.333-.543-.274-.518-.47l.345-.069c0-1.145-1.282-.029-1.887-.196l.481-.754-.813.558c-.074-.225-.05-.685.295-.754-.332-.47-.468.215-.727-.284-.025-.078.012-.108.049-.137l-.505.166c.135-.157.086-.578.32-.411-.653-.587-1.417.382-1.553-.264l.025-.078c-1.159.088-.259.568-1.258 1.116l-.16-1.537-.259.568c-.111-.039-.321-.117-.21-.352-.518.333 0 .264-.333.607-.394-.627-1.541 0-1.43-.95-.308.411.432.431-.222.646.086-1.028-.703.059-1.085-.48.284-.489.678-.137.308-.685-.517.822-.912-.352-1.368-.255-.197.695-.974.137-1.726.255.098-.225-1.221-.607-1.813-.959l.05-.117c-.296.695-.937.47-1.455.558.111-.421.246-.578.554-.734l-.468-.059c-.16.215-.333.313-.653.352l.234-.509c-.629-.049-1.381.46-2.096.01-.148.489.32 1.459-.58 1.674.025-.274.099-.734.333-.812-.074.029-.308.186-.419.059l.432-.411c-.321-.245-.272.352-.543.274.086-.382-.148-.303-.049-.597.086-.029.222.186.357.059-.308-.108-.653-.382-.715-.695-.012.225-.111.509-.357.529-.617-.049-.111-.489-.432-.724-.21.245-.542-.078-.666.489-.185-.029-.16-.294-.197-.46-.37.206-1.504-.117-1.27.538l.074.049c-.012.01-.037.01-.062.02-1.159.431-2.096-.597-3.181-.489l.037-.196c-.653.137-1.393-.049-1.911.303-.185-.02-.37-.401-.246-.626-.493.088-.592.294-1.221-.108.53-.274-.111-.313.53-.186-.579-.245-.666-.568-1.418-.127.309-.46-.357-.675-.665-.568l.369.401c-.345.029-.616-.049-.9-.127l.272-.627c-1.135-.94-2.503 1.116-3.255-.294-.407.421.641.382.246.881-.567-.137-1.023-1.126-1.208-1.145-.74-.431-.9.871-1.689.558.074.245.074.861-.58 1.028-.567-.137-.567-1.038-.172-1.184.148-.01.197.069.185.147.197-.069.468-.147.271-.411l-.111.225c-.259-.264-1.06-.313-.814-.675-.468.176-.246.362.062.509-.703-.401-1.171-.117-1.899-.411.099.137.173.421.062.411-1.085-.392-.555.392-1.332.421-.382-.392.271-.822-.542-.597-.432-.284-.013-.627.197-.793-.764.382-1.27-.411-1.665-.529l.395-.157c-.234.088-.419.069-.604.049l.148.48c-.21-.098-.395-.117-.358-.313-.259.284.074.783-.431 1.155-.259-.264-.913.176-.937-.45.887.294-.025-.627.764-.656-.16.059-.345.039-.542-.059-.025-.069.049-.127.111-.157-.802-.626-.494.656-1.394.558.161-.333-.123-.675-.283-.617.357.039.098.597-.259.832-.543-.323-.654.147-.949.088l.332.157c-.16.343-.443.255-.85.343 0-.274.382-.157.259-.294-.518.578-.937-.685-1.616-.313-.258-.255.05-.656-.197-.822-.752.411-.715-.519-1.492-.186.161.48.21.362-.357.793l1.245-.255-.851.636c.37.029.802-.245 1.011-.157-.407.362-.357.245-.234.636-.419-.724-1.036.352-1.566-.157l.136-1.155c-.826-.568-1.603.499-2.713.147l.346.225c-.198.45-.703.02-1.085.186.074-.382-.148-.538-.284-.783-.012.284-.826-.078-.999.695l-.456-.538c-.9-.264-1.134 1.038-1.997.861.296-.401-.074-.705.53-.969-.296-.02-.555-.108-.58.157-.148-.255-.85.47-1.097.088-.135.166-.209.568-.53.509-.025-.078.012-.186.012-.186-.012.186-.53.225-.283.675-.814-1.243-2.516-.078-3.231-1.116-.653.117-1.43.215-2.009.235.049-.117.012-.196.123-.147-.777-.382-.555 1.096-1.443.675-.431-.636.505-.323.222-.568-.062-1.273-1.11.147-1.689-.617l.148-.069c-.456-.441-1.171.45-1.936.343 0 0 .037-.108.012-.196-.555.636-1.553.822-2.293.989.247-.489.345-.255.222-.764-.333.059.074.812-.592.94-.21-.274-.678-.529-.715-1.067l.629-.01c-.296-.705-.801 0-1.134-.127l.049-.303c-.962.078-.986.842-2.01.764l.099.235c-.579.744-.456-.441-1.023.108l-.16-.773c-.37.166-1.307.724-1.973.881.382-.568 1.159-.881 1.652-1.204-.37-.029-1.245.049-1.442.431.148-.078.333-.264.481-.147-.456.607-1.048.91-1.776.901.16-1.498-1.874-.362-2.404-1.527-1.295.558-2.565-.225-4.081-.127.555 1.165-.444.039-.333 1.233-.345.078-.481.059-.518-.02l-1.073-.715c-.259-.343.333-.264.296-.538-.777-.078-.333-.499-.851-.812.111.431-.259.617-.703.45l.629.548c-1.048.646-.949-.998-2.022-.362l.333-.382c-.555.215-2.059.029-2.565 1.008-.099-.137-.247-.46 0-.548-1.344-.098-2.91 1.116-3.97.558l.086-.294c-.247.088-.407.568-.728.284.012-.117.086-.294-.025-.313-.123.108-.629.538-.974.372l.259-.343c-1.319-.343-1.948.871-3.008 1.106-.049-.861-1.085-1.106-1.615-1.233l.012-.127c-1.517-.069-2.515.822-3.884 1.243-.937-.881-2.959-.215-4.402-.656.222.147.025.675-.21.773-.345-.137-.851.666-.875-.127l.123.01c-.321-.754-.974-.509-1.504-.499l.025 1.038c-1.529-1.429-3.526.764-4.426-.499-.296.284-.703.313-.999.597l-.049-.548c-.937-.069-1.393-.098-2.515.137l.185-.411c-.641.02-.592 1.654-1.171 1.742l-.284-.812c-1.11.108-2.343-.519-3.329.313 0-.117 0-.362.173-.411-.53.02-2.108-.382-1.751.734-.123-.734-1.159.049-1.701.441V3.24c-.395.744-.382.94-1.048 1.204-.173-.049-.222-.421.025-.303-.604-.225-.345.558-1.073.343l.197-.372c-.579.02-.506.196-.752.636-.32.255-1.11-.02-1.282-.499-.025.303-.271.734-.629.636-.074-.176.025-.303.074-.372-1.023-.264-1.307.783-2.059.323-.049-.176-.111-.264-.173-.313l1.332-.059c-.086-.499-.727-.519-.357-1.263-.432.431-1.122 1.331-1.763 1.165-.037-.049-.074-.088-.111-.166l.049-.059c-.148-.039-.259.029-.358.127-.21-.059-.333-.098-.518-.088-.148-.401-.752-.127-1.06-.108.136.538-.284.509.173.91-.062-.029.049-.069.247-.117.037-.02.099-.039.123-.069l-.012.049.752-.137c-.185.303-.395.578-.789.313l-.259.92c-.567-.705-1.455-1.008-1.665-1.459-.875.431-2.158.489-2.527 1.586-.234.166-.37-.255-.505-.401.136-.117.321-.127.37-.284-.469.333-1.541.303-1.517 1.038-.74-.235.234-.705-.666-.47l.074-.235c-2.059-.881-2.49 2.252-4.833 1.087.16.069.234.098.296.215-2.429-.313-4.5 1.331-7.003.705-.666-.108-.604.362-.888.764l-.308-.548-.469.783c-.777.656-2.034-1.106-2.947.039l.271.352c-.444.01-1.27.489-1.332.029-.025.078-.012.431-.247.264l-.111-.303-.875.724C1.38 9.789 1.984 8.624.776 8.81c-.407.206-.962 1.145-.715 1.312.185-.029.518.088.641.382l-.345.245c.247.891.308 1.85 1.43 2.261l.469-.675.358.382-.542.147c.456.333.53-.059.678-.352.123.215.271.352.432.411l.37-.979c.185.333-.074.744.432.842.173-.45-.542-.715-.123-1.077.444.333.456.675.727.264.123.215.086.382-.025.509.247-.333.851-.284.875-.783.493.431 1.097-.343 1.319.499.049-.225.395-.773.69-.861-.271 1.116 1.171-.157 1.332.95.16-.979 1.393-.666 1.997-1.292-.025.078-.062.235-.136.206.444 0 .641.255.949.382-.148-.764.456-1.038.69-1.566.703.636-.074.94.271 1.605-.185-.607.727-.764.419-1.233.505.382.394.157.764.744-.173-.95.321-.225.506-.852.691.382.37.861.925.48.37.225-.099.636-.099.636zm14.61-3.7c-.123.039-.234.059-.308.078l.308-.078zm1.27-.147a3.86 3.86 0 0 0-.555.039c-.074-.186-.062-.382.062-.382-.037.127.284.206.493.343zm-3.415-3.456c.185-.108.271-.01.321.098-.099.02-.197.059-.345.108 0 .02-.012.049-.012.069.012-.098.012-.196.037-.274z"/><path d="M27.308 4.856c-.025.01-.037.039-.074.049l.148.108.037-.176a.44.44 0 0 0-.111.02zm116.943 1.351l-.024-.02c.012.02.037.049.037.088-.013-.029-.013-.049-.013-.069zm-95.585.713l-.012-.137-.099.127.111.01zm102.186 2.047c0 .049.012.098.061.147.013-.029-.024-.088-.061-.147zm2.968.588l.383.264a1.89 1.89 0 0 0-.383-.264zm2.235.655c.049-.088.074-.157.098-.225l-.098.225zm-36.994-3.681c-.036 0-.061 0-.098.02-.21.078-.062.049.098-.02zm11.224-.273c-.135.088-.259.176-.394.225.185.059.333.088.394-.225zm-23.609.205l-.074-.01.074.01z"/><path d="M129.375 6.421c.185.127.345.117.518.059-.16-.049-.345-.127-.518-.059zm36.57 5.698l.099.039c.012-.039.025-.059.037-.088l-.136.049z"/><path d="M166.086 12.08l.136-.039c-.05-.01-.099-.02-.136.039z"/><path d="M166.522 11.943l-.295.088c.086.02.197.059.295-.088zm-3.553-.578l-.086.186c.037-.029.061-.098.086-.186z"/><path d="M162.031 11.268c.21.078.444.509.777.441l.074-.147c-.222.255-.555-.587-.851-.294zm-3.226-3.065l.739.284c-.086-.235-.184-.538.185-.529-.826-.783.074.499-.924.245zm-2.342-.704c.444-.029.074-.303.124-.421-.321.147-.395.186-.124.421zm-17.646-2.428l.135-.489c-.333.029-.037.186-.135.489zm-3.825 2.125l.259.352.234-.431-.493.078zm-1.389-3.721l.148-.059-.579.127.431-.069zM103.555 1.44l.061.617c.235-.088.321-.783-.061-.617zm-13.023.292c-.136-.313-.493-.519-.727-.225.296.059.58.303.727.225zm-39.009.03l.247-.225-.481.206.234.02z"/></g><defs><clipPath id="A"><path fill="#fff" d="M0 0h169v13H0z"/></clipPath></defs></svg>