<svg xmlns="http://www.w3.org/2000/svg" width="145" height="27" fill="#0c1327" xmlns:v="https://vecta.io/nano"><path d="M23.116.589h-6.678l-4.88 9.806L6.678.589H0l8.623 15.653v9.77h5.871v-9.769L23.116.589zm7.165 25.931c5.394 0 9.724-4.177 9.724-9.588s-4.33-9.588-9.724-9.588-9.724 4.177-9.724 9.588 4.33 9.588 9.724 9.588zm0-5.302c-2.385 0-4.22-1.707-4.22-4.286s1.835-4.286 4.22-4.286 4.22 1.707 4.22 4.286-1.835 4.286-4.22 4.286zM54.97 7.853v9.915c0 2.579-1.394 3.741-3.413 3.741-1.761 0-3.192-1.053-3.192-3.305V7.853h-5.504v11.15c0 4.903 3.156 7.518 6.861 7.518 2.422 0 4.256-.872 5.247-2.215v1.707h5.504V7.853H54.97zM81.483.589v11.476c-1.504-2.796-4.33-4.612-7.889-4.612-5.247 0-9.503 4.104-9.503 9.479s4.256 9.479 9.503 9.479c3.559 0 6.385-1.816 7.889-4.612v4.213h1.835V.589h-1.835zm-7.779 24.079c-4.366 0-7.779-3.414-7.779-7.736s3.412-7.736 7.779-7.736 7.779 3.414 7.779 7.736-3.412 7.736-7.779 7.736zM97.207 7.453c-5.614 0-9.503 4.14-9.503 9.479 0 5.484 3.999 9.479 9.65 9.479 3.632 0 6.494-1.634 7.999-4.104l-1.615-.944c-1.064 1.925-3.339 3.305-6.347 3.305-4.183 0-7.338-2.688-7.779-6.791h16.621c0-.291.037-.581.037-.872 0-4.976-3.486-9.552-9.063-9.552zm0 1.743c3.596 0 6.752 2.47 7.155 6.9h-14.75c.367-4.031 3.412-6.9 7.595-6.9zm32.945-1.743c-2.458 0-4.807 1.162-6.128 3.704-.954-2.397-3.045-3.704-5.724-3.704-2.348 0-4.549 1.017-5.907 3.523V7.853h-1.835v18.159h1.835V15.879c0-4.649 2.678-6.683 5.687-6.683 2.826 0 4.697 1.852 4.697 5.302v11.513h1.835V15.879c0-4.649 2.421-6.683 5.503-6.683 2.862 0 4.881 1.852 4.881 5.302v11.513h1.834V14.499c0-4.54-2.788-7.046-6.678-7.046zm12.785-3.995c.807 0 1.467-.654 1.467-1.453 0-.763-.66-1.416-1.467-1.416s-1.468.654-1.468 1.416c0 .799.66 1.453 1.468 1.453zm-.918 22.553h1.835V7.853h-1.835v18.159z"/><path fill-rule="evenodd" d="M80.889 0h3.025v26.601h-3.025v-2.876C79.172 25.755 76.627 27 73.596 27c-5.574 0-10.098-4.366-10.098-10.068S68.021 6.864 73.596 6.864c3.031 0 5.576 1.245 7.294 3.276V0zm.595 12.065c-.18-.334-.378-.654-.595-.959-1.595-2.245-4.16-3.653-7.294-3.653-5.247 0-9.503 4.104-9.503 9.479s4.256 9.479 9.503 9.479c3.134 0 5.699-1.408 7.294-3.653.217-.305.415-.625.595-.959v4.213h1.835V.589h-1.835v11.476zm-14.963 4.867c0 4 3.15 7.147 7.184 7.147s7.184-3.147 7.184-7.147-3.15-7.147-7.184-7.147-7.184 3.147-7.184 7.147zm39.652 5.17l-.31.509c-1.623 2.664-4.69 4.389-8.509 4.389-5.978 0-10.245-4.257-10.245-10.068 0-5.649 4.141-10.068 10.098-10.068 5.976 0 9.658 4.913 9.658 10.141a7.25 7.25 0 0 1-.019.465v.008c-.009.148-.017.275-.017.399v.589H90.301c.651 3.42 3.425 5.614 7.091 5.614 2.822 0 4.88-1.288 5.826-2.999l.295-.534 2.661 1.556zm-16.478-3.637c.666 3.77 3.716 6.203 7.696 6.203 2.842 0 5.029-1.232 6.16-2.99.066-.103.129-.208.188-.314l1.614.944a7.61 7.61 0 0 1-.326.493c-1.572 2.192-4.288 3.611-7.673 3.611-5.651 0-9.65-3.995-9.65-9.479 0-5.339 3.889-9.479 9.503-9.479 5.578 0 9.063 4.576 9.063 9.552 0 .145-.009.291-.018.436s-.018.291-.018.436H89.613a8.72 8.72 0 0 0 .083.589zm13.994-2.957c-.605-3.719-3.371-5.723-6.482-5.723-3.642 0-6.333 2.331-6.918 5.723h13.4zm.602 0c-.618-4.06-3.65-6.311-7.084-6.311-3.976 0-6.925 2.593-7.521 6.311a8.68 8.68 0 0 0-.074.589h14.75c-.018-.2-.042-.397-.071-.589zm32.539 10.504h-1.834V14.499c0-3.45-2.018-5.302-4.88-5.302-3.082 0-5.504 2.034-5.504 6.682v10.133h-1.835V14.499c0-3.45-1.871-5.302-4.696-5.302-3.009 0-5.688 2.034-5.688 6.682v10.133h-1.834V7.853h1.834v3.123a7.86 7.86 0 0 1 .595-.936c1.361-1.827 3.282-2.587 5.313-2.587 2.419 0 4.359 1.066 5.415 3.038.113.212.216.434.309.666a7.68 7.68 0 0 1 .37-.637c1.363-2.1 3.515-3.067 5.757-3.067 3.89 0 6.678 2.506 6.678 7.046v11.513zM124.081 9.93c1.486-2.093 3.742-3.066 6.072-3.066 2.076 0 3.909.671 5.223 1.997s2.05 3.247 2.05 5.638v12.102h-3.024V14.499c0-1.612-.47-2.779-1.202-3.538s-1.785-1.175-3.083-1.175c-1.405 0-2.608.46-3.466 1.403-.863.95-1.443 2.463-1.443 4.691v10.722h-3.025V14.499c0-1.623-.439-2.792-1.134-3.549-.689-.75-1.691-1.165-2.967-1.165-1.368 0-2.625.46-3.541 1.415s-1.552 2.467-1.552 4.679v10.722h-3.024V7.264h3.024V9.11c1.439-1.573 3.337-2.246 5.313-2.246 2.505 0 4.582 1.071 5.779 3.066zm17.345 16.671V7.264h3.024v19.337h-3.024zm3.575-24.595c0 1.124-.927 2.042-2.063 2.042s-2.063-.917-2.063-2.042c0-1.098.937-2.005 2.063-2.005s2.063.908 2.063 2.005zm-1.146 24.006h-1.834V7.853h1.834v18.159zm-77.928-9.08c0 4.322 3.412 7.736 7.779 7.736s7.779-3.414 7.779-7.736-3.412-7.736-7.779-7.736-7.779 3.414-7.779 7.736zm78.479-14.927c0 .799-.661 1.453-1.468 1.453s-1.468-.654-1.468-1.453c0-.763.661-1.416 1.468-1.416s1.468.654 1.468 1.416z"/></svg>